<?xml version="1.0" standalone="no"?><!DOCTYPE svg PUBLIC "-//W3C//DTD SVG 1.1//EN" "http://www.w3.org/Graphics/SVG/1.1/DTD/svg11.dtd"><svg t="1569411293140" class="icon" viewBox="0 0 1024 1024" version="1.1" xmlns="http://www.w3.org/2000/svg" p-id="4870" xmlns:xlink="http://www.w3.org/1999/xlink" width="32" height="32"><defs><style type="text/css"></style></defs><path d="M509.44 508.16m-98.56 0a98.56 98.56 0 1 0 197.12 0 98.56 98.56 0 1 0-197.12 0Z" fill="#F89100" p-id="4871"></path><path d="M509.44 632.32c-69.12 0-124.16-56.32-124.16-124.16s56.32-124.16 124.16-124.16 124.16 56.32 124.16 124.16-55.04 124.16-124.16 124.16z m0-198.4c-40.96 0-72.96 33.28-72.96 72.96s33.28 72.96 72.96 72.96 72.96-33.28 72.96-72.96-32-72.96-72.96-72.96z" fill="#1084F1" p-id="4872"></path><path d="M197.12 79.36c-69.12 0-124.16 56.32-124.16 124.16 0 69.12 56.32 124.16 124.16 124.16s124.16-56.32 124.16-124.16c1.28-69.12-55.04-124.16-124.16-124.16z m0 198.4c-40.96 0-72.96-33.28-72.96-72.96 0-40.96 33.28-72.96 72.96-72.96s72.96 33.28 72.96 72.96c1.28 39.68-32 72.96-72.96 72.96zM197.12 692.48c-69.12 0-124.16 56.32-124.16 124.16 0 69.12 56.32 124.16 124.16 124.16s124.16-56.32 124.16-124.16c1.28-67.84-55.04-124.16-124.16-124.16z m0 198.4c-40.96 0-72.96-33.28-72.96-72.96 0-40.96 33.28-72.96 72.96-72.96s72.96 33.28 72.96 72.96c1.28 39.68-32 72.96-72.96 72.96zM826.88 325.12c69.12 0 124.16-56.32 124.16-124.16 0-69.12-56.32-124.16-124.16-124.16-69.12 0-124.16 56.32-124.16 124.16-1.28 69.12 55.04 124.16 124.16 124.16z m0-197.12c40.96 0 72.96 33.28 72.96 72.96 0 40.96-33.28 72.96-72.96 72.96-40.96 0-72.96-33.28-72.96-72.96-1.28-40.96 32-72.96 72.96-72.96zM826.88 698.88c-69.12 0-124.16 56.32-124.16 124.16s56.32 124.16 124.16 124.16c69.12 0 124.16-56.32 124.16-124.16s-56.32-124.16-124.16-124.16z m0 197.12c-40.96 0-72.96-33.28-72.96-72.96s33.28-72.96 72.96-72.96c40.96 0 72.96 33.28 72.96 72.96S866.56 896 826.88 896zM222.72 632.32V384c0-14.08-11.52-25.6-25.6-25.6s-25.6 11.52-25.6 25.6v248.32c0 14.08 11.52 25.6 25.6 25.6s25.6-11.52 25.6-25.6zM509.44 72.96c-14.08 0-25.6 11.52-25.6 25.6v198.4c0 14.08 11.52 25.6 25.6 25.6s25.6-11.52 25.6-25.6V98.56c0-14.08-11.52-25.6-25.6-25.6zM509.44 695.04c-14.08 0-25.6 11.52-25.6 25.6v203.52c0 14.08 11.52 25.6 25.6 25.6s25.6-11.52 25.6-25.6V720.64c0-14.08-11.52-25.6-25.6-25.6zM801.28 381.44v253.44c0 14.08 11.52 25.6 25.6 25.6s25.6-11.52 25.6-25.6V381.44c0-14.08-11.52-25.6-25.6-25.6s-25.6 11.52-25.6 25.6z" fill="#0081F5" p-id="4873"></path></svg>